<svg id="phone_new" data-name="phone new" xmlns="http://www.w3.org/2000/svg" viewBox="0 0 1024 1024"><title>icon11--phone</title><path d="M234.78,37.07,385.67,231.42l2,2.95a94.75,94.75,0,0,1,15.18,31.3,97.92,97.92,0,0,1-10.64,74.52l-1.41,2.34a99.11,99.11,0,0,1-24.52,25.83l-2.43,1.51-73.42,53.58c-4.56,10.54-10.23,33.93,10,62.78A936.34,936.34,0,0,0,408.57,615.37l.08.1v-.1a951.83,951.83,0,0,0,129,108.17c29,20.16,52.27,14.58,62.89,10l55.19-75.75-.08-.1a97.87,97.87,0,0,1,28.15-25.93v-.11A98.14,98.14,0,0,1,720.08,619l1.41-.1a95.62,95.62,0,0,1,36.88,2.22l2.12.73a93.7,93.7,0,0,1,32,16.59l.1-.19,194.24,151.1L990,791.9a98.19,98.19,0,0,1,23.4,29.16h.1a98.72,98.72,0,0,1,3.63,80.52h0a97.76,97.76,0,0,1-23.69,34.22,288.17,288.17,0,0,1-46.48,34.85L944.6,972a328.24,328.24,0,0,1-63.49,28.56c-106.75,35.45-220.89,29-330.36-7.38-115.86-38.58-226.87-110.8-318-201.86s-163.25-202-201.85-318C-5.55,363.79-11.93,249.65,23.51,142.91a319.93,319.93,0,0,1,30-65.63v-.1h0A264.78,264.78,0,0,1,88.33,30.6,93.11,93.11,0,0,1,122.47,6.89l3.13-1.12A94.34,94.34,0,0,1,163,.11a98.74,98.74,0,0,1,40.09,10.43l2,1.12,29.68,25.41Zm0,0Zm-.1,0Z" transform="translate(0 0)"/></svg>