<svg xmlns="http://www.w3.org/2000/svg" viewBox="0 0 1024 703.61"><defs><style>.cls-1{isolation:isolate;}.cls-2{fill:#b8ce31;}.cls-2,.cls-3{mix-blend-mode:multiply;}.cls-3{fill:#32a8e0;}</style></defs><title>icon12--talks</title><g class="cls-1"><g id="Layer_10" data-name="Layer 10"><path class="cls-2" d="M673.08,486.9c0-180.43-150.68-326.7-336.54-326.7S0,306.47,0,486.9C0,660.07,138.84,801.71,314.34,812.8c25.46,33.2,66.1,59.48,130.28,48.45,0,0-26.38-22.2-47.47-53,156.92-27.73,275.93-161,275.93-321.31" transform="translate(0 -160.2)"/><path class="cls-3" d="M1016.91,405.54C978.72,264.6,797.06,179.19,611.14,214.78S305.45,393.49,343.62,534.43c32.83,121.17,171.72,201.2,328.17,198.69-14.44,26-33.85,46.09-33.85,46.09,60.65-3.35,95.14-27.19,114.73-54.72,184-36.64,302.2-178.84,264.25-318.95" transform="translate(0 -160.2)"/></g></g></svg>